<svg version="1.1" id="Layer_1" xmlns="http://www.w3.org/2000/svg" xmlns:xlink="http://www.w3.org/1999/xlink" x="0px" y="0px" width="380px" height="480px" viewBox="0 0 380 480" enable-background="new 0 0 380 480" xml:space="preserve">
<path fill="white" d="M365.94,262.793c-0.001-0.027-0.001-0.055-0.002-0.082c-0.001-0.031,0.005-0.061,0.003-0.092l-6.208-125.458
c-0.087-1.761-0.943-3.394-2.343-4.466L193.649,7.237c-0.015-0.011-0.031-0.018-0.046-0.029c-0.048-0.036-0.098-0.068-0.147-0.103
c-0.035-0.025-0.065-0.054-0.101-0.078c-0.099-0.067-0.209-0.115-0.312-0.176c-0.057-0.034-0.112-0.073-0.171-0.105
c-0.052-0.029-0.101-0.067-0.154-0.094c-0.046-0.023-0.097-0.037-0.144-0.059c-0.05-0.024-0.095-0.056-0.146-0.078l-0.002-0.001
c-0.022-0.01-0.046-0.014-0.068-0.023c-0.071-0.03-0.148-0.048-0.22-0.076c-0.119-0.046-0.234-0.103-0.356-0.141
c-0.062-0.019-0.125-0.029-0.188-0.047c-0.056-0.015-0.108-0.038-0.164-0.052c-0.097-0.024-0.196-0.03-0.294-0.049
c-0.116-0.023-0.23-0.053-0.348-0.069c-0.079-0.01-0.157-0.012-0.236-0.02c-0.052-0.005-0.102-0.021-0.154-0.024
c-0.003,0-0.005,0-0.008,0c-0.091-0.006-0.18,0.004-0.271,0.002c-0.116-0.002-0.23-0.009-0.346-0.005
c-0.087,0.003-0.172,0.014-0.258,0.021c-0.138,0.011-0.273,0.029-0.41,0.049c-0.113,0.017-0.225,0.032-0.338,0.055
c-0.092,0.019-0.183,0.044-0.274,0.068c-0.131,0.034-0.259,0.074-0.388,0.117c-0.068,0.023-0.138,0.032-0.206,0.058
c-0.04,0.015-0.075,0.038-0.115,0.054c-0.091,0.036-0.18,0.076-0.27,0.117c-0.118,0.054-0.233,0.113-0.347,0.175
c-0.108,0.058-0.214,0.116-0.318,0.18c-0.082,0.051-0.161,0.103-0.241,0.158c-0.098,0.068-0.193,0.139-0.288,0.212
c-0.108,0.084-0.212,0.172-0.314,0.264c-0.044,0.039-0.093,0.067-0.136,0.107c-0.029,0.028-0.05,0.061-0.079,0.089
c-0.032,0.032-0.07,0.058-0.102,0.091c-0.041,0.042-0.075,0.092-0.114,0.135c-0.098,0.107-0.187,0.219-0.276,0.333
c-0.065,0.082-0.134,0.16-0.194,0.245c-0.027,0.039-0.057,0.075-0.083,0.114c-0.008,0.011-0.018,0.02-0.025,0.032L51.046,210.747
c-0.069,0.104-0.123,0.214-0.185,0.321c-0.042,0.072-0.086,0.142-0.125,0.216c-0.15,0.286-0.277,0.581-0.378,0.884
c-0.005,0.015-0.014,0.029-0.019,0.044L6.933,346.131c-0.026,0.08-0.034,0.161-0.056,0.242c-0.004,0.013-0.007,0.026-0.01,0.039
c-0.042,0.156-0.092,0.31-0.122,0.469c-0.009,0.05-0.013,0.1-0.021,0.15c-0.019,0.12-0.026,0.24-0.038,0.36
c-0.013,0.126-0.034,0.251-0.039,0.378c-0.003,0.069,0.004,0.138,0.004,0.207c0,0.127,0.008,0.253,0.016,0.379
c0.006,0.102,0.003,0.203,0.014,0.305c0.01,0.085,0.032,0.168,0.045,0.253c0.02,0.129,0.045,0.256,0.074,0.383
c0.018,0.081,0.026,0.162,0.047,0.242c0.026,0.099,0.068,0.192,0.1,0.29c0.04,0.123,0.08,0.245,0.128,0.366
c0.026,0.065,0.043,0.132,0.071,0.196c0.001,0.003,0.002,0.006,0.003,0.009c0.047,0.107,0.109,0.202,0.162,0.305
c0.057,0.112,0.111,0.224,0.175,0.332c0.026,0.044,0.045,0.091,0.073,0.134c0.081,0.129,0.177,0.244,0.267,0.365
c0.068,0.092,0.129,0.186,0.202,0.274c0.169,0.204,0.352,0.392,0.545,0.57c0.036,0.033,0.066,0.072,0.103,0.104
c0.01,0.009,0.02,0.017,0.03,0.025c0.005,0.004,0.008,0.009,0.013,0.013l141.064,121.866c1.121,1.155,2.664,1.828,4.295,1.828
c0.139,0,0.279-0.005,0.418-0.015l144.523-10.081c0.038-0.003,0.074-0.012,0.112-0.015c0.045-0.004,0.089-0.002,0.133-0.007
c0.069-0.008,0.134-0.028,0.203-0.038c0.173-0.025,0.345-0.055,0.514-0.095c0.107-0.025,0.211-0.054,0.315-0.084
c0.161-0.047,0.318-0.102,0.473-0.162c0.101-0.039,0.202-0.078,0.3-0.123c0.156-0.07,0.305-0.15,0.454-0.234
c0.088-0.049,0.178-0.095,0.263-0.148c0.166-0.104,0.322-0.22,0.477-0.34c0.059-0.045,0.121-0.085,0.178-0.132
c0.207-0.172,0.403-0.358,0.586-0.558c0.038-0.042,0.07-0.089,0.107-0.132c0.14-0.162,0.275-0.328,0.397-0.505
c0.056-0.082,0.104-0.169,0.157-0.254c0.07-0.112,0.146-0.22,0.208-0.337c0.021-0.039,0.034-0.08,0.054-0.119
c0.048-0.096,0.09-0.195,0.133-0.294c0.07-0.159,0.135-0.319,0.19-0.482c0.016-0.049,0.041-0.093,0.056-0.142l61.349-197.218
c0.007-0.022,0.009-0.044,0.015-0.066c0.015-0.049,0.027-0.099,0.04-0.149c0.014-0.052,0.033-0.102,0.046-0.155
c0.032-0.132,0.052-0.265,0.075-0.398c0.009-0.054,0.023-0.108,0.031-0.162c0.005-0.039,0.01-0.077,0.015-0.116
c0.005-0.042,0.006-0.085,0.01-0.128c0.018-0.178,0.031-0.356,0.033-0.534C365.945,262.924,365.941,262.859,365.94,262.793z
M213.383,56.78l65.744,96.04l-14.769,46.686l-34.289,108.388L198.728,35.371L213.383,56.78z M187.783,45.239l31.299,272.158
l-77.011-91.41l15.345-60.675L187.783,45.239z M214.966,331.138L28.186,341.14l106.894-104.825l18.227,21.635L214.966,331.138z
M175.554,44.65l-5.062,20.015l-39.451,155.996l-4.702-0.795l-60.192-10.18L175.554,44.65z M60.157,220.843l12.796,2.164
l49.946,8.447L25.88,326.594L60.157,220.843z M152.352,460.749L27.832,353.176L143.155,347l73.719-3.947L152.352,460.749z
M164.616,463.464l62.835-114.732l9.589,16.633l51.569,89.451L164.616,463.464z M296.946,445.25l-61.384-106.476l114.213-63.354
L296.946,445.25z M312.341,282.462l-74.759,41.468l50.099-158.366l63.658,95.265L312.341,282.462z M290.681,148.454L216.174,39.613
L347.886,140.53l4.999,101.013L290.681,148.454z"></path>
</svg>