<?xml version="1.0" encoding="utf-8"?>
<svg version="1.1" id="Layer_1" xmlns="http://www.w3.org/2000/svg" xmlns:xlink="http://www.w3.org/1999/xlink" x="0px" y="0px"
	 viewBox="0 0 2084.3 559.9" enable-background="new 0 0 2084.3 559.9" xml:space="preserve">
<g>
	<g>
		<path fill="#E50914" d="M1609.7,508.1c29.3,2.2,58.6,4.6,87.8,7.2V0h-87.8V508.1z M197.7,316.9L83.4,0H0v560
			c29.2-4.2,58.5-8.1,87.8-12V243.5l101.6,292c32-3.7,64-7.2,96.1-10.5V0h-87.8V316.9z M369.9,516.8c80.9-7.4,162.2-13.4,243.8-18.1
			v-86.5c-52.2,3-104.2,6.6-156,10.7V291.9c34-0.3,78.8-1.4,118.5-0.9v-86.5c-31.7-0.1-82.7,0.4-118.5,0.9V87.3h156V0H369.9V516.8z
			 M670,87.3h91.9v404.4c29.2-1.1,58.5-2,87.8-2.8V87.3h91.9V0H670V87.3z M997.7,486.5l87.8,0V286.8h119v-86.5h-119V87.3h157.3V0
			h-245V486.5z M2084.3,0h-96.4l-63.6,147.3L1867.3,0h-95l102,263.2l-111.4,258.2c30.8,3,61.6,6.2,92.3,9.6l64.8-150.1l64.2,165.5
			c33.4,4.3,66.8,8.8,100,13.5l0.1-0.1L1970,265L2084.3,0z M1386.8-0.1H1299v490.9c79.8,2.7,159.2,6.8,238.3,12v-86.5
			c-50-3.3-100.2-6.2-150.5-8.5V-0.1z"/>
	</g>
</g>
</svg>
